<svg width="457" height="501" viewBox="0 0 457 501" fill="none" xmlns="http://www.w3.org/2000/svg">
<ellipse cx="119.985" cy="295.415" rx="110.762" ry="93.149" fill="#795548"/>
<path d="M50.8772 241.004C50.8772 231.695 43.3396 224.149 34.0415 224.149C27.2757 224.149 21.4421 228.144 18.7664 233.907C-12.626 288.318 18.7664 374.666 60.0335 378.51C32.5648 326.465 46.1515 279.447 50.8772 241.004Z" fill="#5D4037"/>
<path d="M202.498 238.985C196.773 246.32 199.126 257.737 207.753 264.485C214.031 269.396 221.9 270.481 227.927 267.881C290.512 247.788 314.484 156.962 278.56 123.984C272.042 184.931 230.522 212.121 202.498 238.985Z" fill="#5D4037"/>
<path d="M155.116 96.214C145.929 91.9017 134.081 89.3048 121.149 89.3048C105.79 89.3048 96.0431 91.6705 86.8105 96.3901C67.9072 90.6637 44.6497 108.23 8.61523 86.3477C10.9781 103.499 20.7252 115.032 33.1305 124.494H208.577C220.982 115.032 230.729 103.499 233.092 86.3477C197.058 108.23 174.019 90.4876 155.116 96.214Z" fill="#5D4037"/>
<path d="M165.158 241.892C202.025 241.892 231.911 211.971 231.911 175.061C231.911 138.151 202.025 108.23 165.158 108.23H77.1397C40.2734 108.23 10.3873 138.151 10.3873 175.061C10.3873 211.971 40.2734 241.892 77.1397 241.892C94.8615 241.892 101.655 235.386 121.149 235.386C137.985 235.386 145.96 241.892 165.158 241.892Z" fill="#5D4037"/>
<ellipse cx="78.0259" cy="178.314" rx="29.2411" ry="29.2754" fill="#F2F3F4" stroke="#888888" stroke-width="0.591422"/>
<ellipse cx="163.091" cy="178.314" rx="29.2411" ry="29.2754" fill="#EEEEEE" stroke="#888888" stroke-width="0.591422"/>
<ellipse cx="159.251" cy="181.567" rx="12.4053" ry="12.4199" fill="#0C0C0C"/>
<ellipse cx="82.4563" cy="181.567" rx="12.4053" ry="12.4199" fill="#0C0C0C"/>
<ellipse cx="71.8232" cy="179.201" rx="7.67947" ry="3.54853" fill="#DCDCDC"/>
<ellipse cx="148.027" cy="179.201" rx="7.67947" ry="3.54853" fill="#DCDCDC"/>
<path d="M133.868 198.239C133.868 208.202 128.049 216.278 120.872 216.278C113.694 216.278 107.876 208.202 107.876 198.239C107.876 188.277 113.694 180.201 120.872 180.201C123.239 180.201 125.458 181.079 127.37 182.614C131.254 185.733 133.868 191.563 133.868 198.239Z" fill="#6D4C41"/>
<path d="M127.37 182.614C125.458 181.079 123.239 180.201 120.872 180.201C113.694 180.201 107.876 188.277 107.876 198.239C107.876 208.202 113.694 216.278 120.872 216.278C128.049 216.278 133.868 208.202 133.868 198.239C133.868 191.563 131.254 185.733 127.37 182.614ZM127.37 182.614C130.028 116.623 216.865 112.483 222.182 99.1761M114.669 182.384C112.011 116.393 25.1737 111.892 19.8572 98.5847" stroke="#6D4C41" stroke-width="2"/>
<path d="M172.972 59.924L62.6996 79.3908L67.9657 109.291C71.4764 129.225 181.748 109.758 178.238 89.8244L172.972 59.924Z" fill="#3E3E3E"/>
<path d="M233.439 33.016L114.289 20.0075L6.76841 73.0311L126.171 87.4751L233.439 33.016Z" fill="#2A2A2A"/>
<g filter="url(#filter0_i)">
<rect x="31.7212" y="375.337" width="197.224" height="58.7374" rx="29.3687" fill="#EEEEEE"/>
</g>
<rect x="33.7212" y="377.337" width="193.224" height="54.7374" rx="27.3687" stroke="#78A17D" stroke-width="4"/>
<g filter="url(#filter1_i)">
<rect x="11.6646" y="430.254" width="217.281" height="58.2599" rx="29.13" fill="#EEEEEE"/>
</g>
<rect x="13.6646" y="432.254" width="213.281" height="54.2599" rx="27.13" stroke="#78A17D" stroke-width="4"/>
<rect x="36.0001" y="443" width="150" height="2" rx="1" fill="#DDDDDD"/>
<rect x="36.0001" y="453" width="150" height="2" rx="1" fill="#DDDDDD"/>
<rect x="36.0001" y="463" width="150" height="2" rx="1" fill="#DDDDDD"/>
<rect x="36.0001" y="473" width="150" height="2" rx="1" fill="#DDDDDD"/>
<rect x="55.0001" y="388" width="150" height="2" rx="1" fill="#DDDDDD"/>
<rect x="55.0001" y="398" width="150" height="2" rx="1" fill="#DDDDDD"/>
<rect x="55.0001" y="408" width="150" height="2" rx="1" fill="#DDDDDD"/>
<rect x="55.0001" y="418" width="150" height="2" rx="1" fill="#DDDDDD"/>
<rect x="184.369" y="311.596" width="268.578" height="185.904" rx="4.76733" fill="#484445" stroke="#E1A251" stroke-width="7"/>
<path d="M251.243 353.166C252.394 353.543 253.307 354.178 253.981 355.071C254.656 355.944 254.993 357.036 254.993 358.345C254.993 360.151 254.299 361.55 252.91 362.542C251.521 363.514 249.497 364 246.838 364H236.481V343.166H246.243C248.703 343.166 250.598 343.652 251.928 344.625C253.257 345.577 253.922 346.897 253.922 348.583C253.922 349.615 253.684 350.528 253.207 351.321C252.731 352.115 252.076 352.73 251.243 353.166ZM240.35 346.202V351.946H245.826C247.176 351.946 248.207 351.708 248.922 351.232C249.656 350.736 250.023 350.022 250.023 349.089C250.023 348.137 249.656 347.422 248.922 346.946C248.207 346.45 247.176 346.202 245.826 346.202H240.35ZM246.6 360.964C249.596 360.964 251.094 359.962 251.094 357.958C251.094 355.954 249.596 354.952 246.6 354.952H240.35V360.964H246.6ZM273.706 356.143C273.706 356.401 273.686 356.768 273.646 357.244H261.176C261.394 358.415 261.96 359.347 262.872 360.042C263.805 360.716 264.956 361.054 266.325 361.054C268.071 361.054 269.509 360.478 270.64 359.327L272.635 361.619C271.92 362.472 271.017 363.117 269.926 363.554C268.835 363.99 267.605 364.208 266.236 364.208C264.49 364.208 262.952 363.861 261.622 363.167C260.293 362.472 259.261 361.51 258.527 360.28C257.813 359.03 257.456 357.621 257.456 356.053C257.456 354.506 257.803 353.117 258.497 351.887C259.212 350.637 260.194 349.664 261.444 348.97C262.694 348.276 264.103 347.928 265.67 347.928C267.218 347.928 268.597 348.276 269.807 348.97C271.037 349.645 271.99 350.607 272.664 351.857C273.359 353.087 273.706 354.516 273.706 356.143ZM265.67 350.905C264.48 350.905 263.468 351.262 262.634 351.976C261.821 352.67 261.325 353.603 261.146 354.774H270.164C270.005 353.623 269.519 352.69 268.706 351.976C267.892 351.262 266.88 350.905 265.67 350.905ZM297.339 347.928C299.343 347.928 300.931 348.514 302.101 349.684C303.272 350.835 303.857 352.571 303.857 354.893V364H300.137V355.369C300.137 353.98 299.829 352.938 299.214 352.244C298.599 351.53 297.716 351.172 296.566 351.172C295.316 351.172 294.314 351.589 293.56 352.422C292.806 353.236 292.429 354.407 292.429 355.934V364H288.708V355.369C288.708 353.98 288.401 352.938 287.786 352.244C287.171 351.53 286.288 351.172 285.137 351.172C283.867 351.172 282.855 351.579 282.101 352.393C281.367 353.206 281 354.387 281 355.934V364H277.28V348.107H280.821V350.131C281.417 349.416 282.161 348.871 283.053 348.494C283.946 348.117 284.938 347.928 286.03 347.928C287.22 347.928 288.272 348.156 289.184 348.613C290.117 349.049 290.851 349.704 291.387 350.577C292.042 349.744 292.885 349.099 293.917 348.643C294.948 348.166 296.089 347.928 297.339 347.928ZM307.808 354.178H315.992V357.274H307.808V354.178ZM334.508 348.107L327.693 364H323.853L317.038 348.107H320.907L325.847 359.893L330.937 348.107H334.508ZM336.833 348.107H340.554V364H336.833V348.107ZM338.708 345.488C338.034 345.488 337.468 345.279 337.012 344.863C336.556 344.426 336.327 343.891 336.327 343.256C336.327 342.621 336.556 342.095 337.012 341.678C337.468 341.242 338.034 341.023 338.708 341.023C339.383 341.023 339.948 341.232 340.405 341.648C340.861 342.045 341.089 342.551 341.089 343.166C341.089 343.821 340.861 344.377 340.405 344.833C339.968 345.27 339.403 345.488 338.708 345.488ZM354.455 347.928C356.459 347.928 358.066 348.514 359.276 349.684C360.486 350.855 361.092 352.591 361.092 354.893V364H357.371V355.369C357.371 353.98 357.044 352.938 356.389 352.244C355.734 351.53 354.802 351.172 353.591 351.172C352.222 351.172 351.141 351.589 350.347 352.422C349.554 353.236 349.157 354.417 349.157 355.964V364H345.437V348.107H348.978V350.16C349.593 349.426 350.367 348.871 351.3 348.494C352.232 348.117 353.284 347.928 354.455 347.928ZM381.522 341.916V364H377.951V361.946C377.335 362.7 376.572 363.266 375.659 363.643C374.766 364.02 373.774 364.208 372.683 364.208C371.155 364.208 369.776 363.871 368.546 363.196C367.335 362.522 366.383 361.569 365.688 360.339C364.994 359.089 364.647 357.661 364.647 356.053C364.647 354.446 364.994 353.028 365.688 351.797C366.383 350.567 367.335 349.615 368.546 348.94C369.776 348.266 371.155 347.928 372.683 347.928C373.734 347.928 374.697 348.107 375.57 348.464C376.443 348.821 377.187 349.357 377.802 350.071V341.916H381.522ZM373.129 361.024C374.022 361.024 374.825 360.825 375.54 360.429C376.254 360.012 376.82 359.427 377.236 358.673C377.653 357.919 377.861 357.046 377.861 356.053C377.861 355.061 377.653 354.188 377.236 353.434C376.82 352.68 376.254 352.105 375.54 351.708C374.825 351.291 374.022 351.083 373.129 351.083C372.236 351.083 371.433 351.291 370.718 351.708C370.004 352.105 369.439 352.68 369.022 353.434C368.605 354.188 368.397 355.061 368.397 356.053C368.397 357.046 368.605 357.919 369.022 358.673C369.439 359.427 370.004 360.012 370.718 360.429C371.433 360.825 372.236 361.024 373.129 361.024ZM393.532 364.208C391.925 364.208 390.476 363.861 389.187 363.167C387.897 362.472 386.885 361.51 386.151 360.28C385.436 359.03 385.079 357.621 385.079 356.053C385.079 354.486 385.436 353.087 386.151 351.857C386.885 350.627 387.897 349.664 389.187 348.97C390.476 348.276 391.925 347.928 393.532 347.928C395.159 347.928 396.617 348.276 397.907 348.97C399.197 349.664 400.199 350.627 400.913 351.857C401.647 353.087 402.014 354.486 402.014 356.053C402.014 357.621 401.647 359.03 400.913 360.28C400.199 361.51 399.197 362.472 397.907 363.167C396.617 363.861 395.159 364.208 393.532 364.208ZM393.532 361.024C394.901 361.024 396.032 360.567 396.925 359.655C397.818 358.742 398.264 357.542 398.264 356.053C398.264 354.565 397.818 353.365 396.925 352.452C396.032 351.539 394.901 351.083 393.532 351.083C392.163 351.083 391.032 351.539 390.139 352.452C389.266 353.365 388.829 354.565 388.829 356.053C388.829 357.542 389.266 358.742 390.139 359.655C391.032 360.567 392.163 361.024 393.532 361.024Z" fill="#F9F9F9"/>
<path d="M240.598 406.19C239.645 406.19 238.722 406.054 237.829 405.784C236.947 405.513 236.247 405.155 235.73 404.708L236.524 402.927C237.029 403.326 237.647 403.656 238.376 403.914C239.116 404.161 239.857 404.285 240.598 404.285C241.515 404.285 242.197 404.138 242.644 403.844C243.102 403.55 243.332 403.162 243.332 402.68C243.332 402.327 243.202 402.039 242.944 401.816C242.697 401.58 242.379 401.398 241.991 401.269C241.603 401.14 241.074 400.993 240.404 400.828C239.463 400.605 238.699 400.381 238.111 400.158C237.535 399.934 237.035 399.587 236.612 399.117C236.2 398.635 235.995 397.988 235.995 397.177C235.995 396.495 236.177 395.878 236.541 395.325C236.918 394.761 237.476 394.314 238.217 393.985C238.969 393.656 239.886 393.491 240.968 393.491C241.721 393.491 242.461 393.585 243.19 393.773C243.919 393.961 244.548 394.232 245.078 394.584L244.354 396.366C243.814 396.048 243.249 395.807 242.661 395.643C242.073 395.478 241.503 395.396 240.951 395.396C240.045 395.396 239.369 395.549 238.922 395.854C238.487 396.16 238.27 396.566 238.27 397.071C238.27 397.424 238.393 397.712 238.64 397.935C238.899 398.159 239.222 398.335 239.61 398.465C239.998 398.594 240.527 398.741 241.197 398.905C242.115 399.117 242.867 399.341 243.455 399.576C244.043 399.799 244.543 400.146 244.954 400.616C245.377 401.087 245.589 401.722 245.589 402.521C245.589 403.203 245.401 403.82 245.025 404.373C244.66 404.926 244.102 405.366 243.349 405.696C242.597 406.025 241.68 406.19 240.598 406.19ZM247.651 396.595H249.856V406.013H247.651V396.595ZM248.762 395.043C248.362 395.043 248.027 394.92 247.757 394.673C247.486 394.414 247.351 394.096 247.351 393.72C247.351 393.344 247.486 393.032 247.757 392.785C248.027 392.527 248.362 392.397 248.762 392.397C249.162 392.397 249.497 392.521 249.767 392.768C250.038 393.003 250.173 393.303 250.173 393.667C250.173 394.055 250.038 394.385 249.767 394.655C249.509 394.914 249.174 395.043 248.762 395.043ZM255.659 406.137C254.895 406.137 254.148 406.037 253.419 405.837C252.69 405.637 252.108 405.384 251.673 405.078L252.52 403.403C252.943 403.685 253.449 403.914 254.037 404.091C254.636 404.255 255.224 404.338 255.8 404.338C257.117 404.338 257.776 403.991 257.776 403.297C257.776 402.968 257.605 402.739 257.264 402.609C256.935 402.48 256.4 402.356 255.659 402.239C254.883 402.121 254.248 401.986 253.754 401.833C253.272 401.68 252.849 401.416 252.485 401.04C252.132 400.652 251.955 400.117 251.955 399.435C251.955 398.541 252.326 397.83 253.067 397.301C253.819 396.76 254.83 396.489 256.1 396.489C256.747 396.489 257.394 396.566 258.04 396.719C258.687 396.86 259.216 397.054 259.628 397.301L258.781 398.976C257.981 398.506 257.082 398.271 256.083 398.271C255.436 398.271 254.942 398.37 254.601 398.57C254.272 398.759 254.107 399.011 254.107 399.329C254.107 399.682 254.284 399.934 254.636 400.087C255.001 400.228 255.559 400.363 256.312 400.493C257.064 400.61 257.682 400.746 258.164 400.898C258.646 401.051 259.057 401.31 259.398 401.674C259.751 402.039 259.927 402.556 259.927 403.227C259.927 404.108 259.545 404.814 258.781 405.343C258.017 405.872 256.976 406.137 255.659 406.137ZM267.487 405.502C267.229 405.713 266.911 405.872 266.535 405.978C266.171 406.084 265.783 406.137 265.371 406.137C264.336 406.137 263.537 405.866 262.972 405.325C262.408 404.784 262.126 403.997 262.126 402.962V398.429H260.574V396.666H262.126V394.514H264.33V396.666H266.853V398.429H264.33V402.909C264.33 403.368 264.442 403.72 264.666 403.967C264.889 404.202 265.212 404.32 265.636 404.32C266.129 404.32 266.541 404.191 266.87 403.932L267.487 405.502ZM277.845 401.357C277.845 401.51 277.833 401.727 277.809 402.01H270.42C270.549 402.703 270.884 403.256 271.425 403.667C271.978 404.067 272.659 404.267 273.471 404.267C274.505 404.267 275.358 403.926 276.028 403.244L277.21 404.602C276.787 405.108 276.252 405.49 275.605 405.749C274.958 406.007 274.229 406.137 273.418 406.137C272.383 406.137 271.472 405.931 270.684 405.519C269.896 405.108 269.285 404.538 268.85 403.809C268.427 403.068 268.215 402.233 268.215 401.304C268.215 400.387 268.421 399.564 268.832 398.835C269.256 398.094 269.838 397.518 270.578 397.107C271.319 396.695 272.154 396.489 273.083 396.489C274 396.489 274.817 396.695 275.534 397.107C276.263 397.506 276.828 398.077 277.227 398.817C277.639 399.546 277.845 400.393 277.845 401.357ZM273.083 398.253C272.377 398.253 271.778 398.465 271.284 398.888C270.802 399.299 270.508 399.852 270.402 400.546H275.746C275.652 399.864 275.364 399.311 274.882 398.888C274.4 398.465 273.8 398.253 273.083 398.253ZM291.85 396.489C293.037 396.489 293.978 396.836 294.672 397.53C295.365 398.212 295.712 399.241 295.712 400.616V406.013H293.508V400.898C293.508 400.075 293.325 399.458 292.961 399.047C292.596 398.623 292.073 398.412 291.391 398.412C290.65 398.412 290.057 398.659 289.61 399.152C289.163 399.634 288.94 400.328 288.94 401.234V406.013H286.735V400.898C286.735 400.075 286.553 399.458 286.188 399.047C285.824 398.623 285.301 398.412 284.619 398.412C283.866 398.412 283.266 398.653 282.82 399.135C282.385 399.617 282.167 400.316 282.167 401.234V406.013H279.962V396.595H282.061V397.794C282.414 397.371 282.855 397.048 283.384 396.824C283.913 396.601 284.501 396.489 285.148 396.489C285.853 396.489 286.476 396.624 287.017 396.895C287.57 397.154 288.005 397.542 288.322 398.059C288.71 397.565 289.21 397.183 289.821 396.913C290.433 396.63 291.109 396.489 291.85 396.489ZM302.127 396.489C303.515 396.489 304.573 396.824 305.302 397.495C306.043 398.153 306.413 399.152 306.413 400.493V406.013H304.332V404.867C304.062 405.278 303.674 405.596 303.168 405.819C302.674 406.031 302.074 406.137 301.369 406.137C300.664 406.137 300.046 406.019 299.517 405.784C298.988 405.537 298.576 405.202 298.283 404.779C298 404.344 297.859 403.856 297.859 403.315C297.859 402.468 298.171 401.792 298.794 401.286C299.429 400.769 300.422 400.51 301.775 400.51H304.209V400.369C304.209 399.711 304.009 399.205 303.609 398.853C303.221 398.5 302.639 398.323 301.863 398.323C301.334 398.323 300.811 398.406 300.293 398.57C299.788 398.735 299.358 398.964 299.006 399.258L298.141 397.653C298.635 397.277 299.229 396.989 299.923 396.789C300.616 396.589 301.351 396.489 302.127 396.489ZM301.828 404.532C302.38 404.532 302.868 404.408 303.291 404.161C303.726 403.903 304.032 403.538 304.209 403.068V401.974H301.933C300.664 401.974 300.029 402.392 300.029 403.227C300.029 403.626 300.187 403.944 300.505 404.179C300.822 404.414 301.263 404.532 301.828 404.532ZM323.341 392.927V406.013H321.225V404.796C320.86 405.243 320.407 405.578 319.866 405.802C319.337 406.025 318.749 406.137 318.103 406.137C317.197 406.137 316.38 405.937 315.651 405.537C314.934 405.137 314.37 404.573 313.958 403.844C313.547 403.103 313.341 402.257 313.341 401.304C313.341 400.352 313.547 399.511 313.958 398.782C314.37 398.053 314.934 397.489 315.651 397.089C316.38 396.689 317.197 396.489 318.103 396.489C318.726 396.489 319.296 396.595 319.814 396.807C320.331 397.018 320.772 397.336 321.136 397.759V392.927H323.341ZM318.367 404.249C318.896 404.249 319.373 404.132 319.796 403.897C320.219 403.65 320.554 403.303 320.801 402.856C321.048 402.409 321.172 401.892 321.172 401.304C321.172 400.716 321.048 400.199 320.801 399.752C320.554 399.305 320.219 398.964 319.796 398.729C319.373 398.482 318.896 398.359 318.367 398.359C317.838 398.359 317.362 398.482 316.939 398.729C316.515 398.964 316.18 399.305 315.933 399.752C315.686 400.199 315.563 400.716 315.563 401.304C315.563 401.892 315.686 402.409 315.933 402.856C316.18 403.303 316.515 403.65 316.939 403.897C317.362 404.132 317.838 404.249 318.367 404.249ZM335.079 401.357C335.079 401.51 335.067 401.727 335.043 402.01H327.654C327.783 402.703 328.118 403.256 328.659 403.667C329.212 404.067 329.893 404.267 330.705 404.267C331.74 404.267 332.592 403.926 333.262 403.244L334.444 404.602C334.021 405.108 333.486 405.49 332.839 405.749C332.192 406.007 331.463 406.137 330.652 406.137C329.617 406.137 328.706 405.931 327.918 405.519C327.13 405.108 326.519 404.538 326.084 403.809C325.661 403.068 325.449 402.233 325.449 401.304C325.449 400.387 325.655 399.564 326.066 398.835C326.49 398.094 327.072 397.518 327.812 397.107C328.553 396.695 329.388 396.489 330.317 396.489C331.234 396.489 332.051 396.695 332.768 397.107C333.497 397.506 334.062 398.077 334.461 398.817C334.873 399.546 335.079 400.393 335.079 401.357ZM330.317 398.253C329.611 398.253 329.012 398.465 328.518 398.888C328.036 399.299 327.742 399.852 327.636 400.546H332.98C332.886 399.864 332.598 399.311 332.116 398.888C331.634 398.465 331.034 398.253 330.317 398.253ZM351.418 396.595V404.585C351.418 407.9 349.725 409.558 346.339 409.558C345.433 409.558 344.575 409.441 343.764 409.205C342.953 408.982 342.282 408.653 341.753 408.218L342.741 406.56C343.152 406.901 343.67 407.171 344.293 407.371C344.928 407.583 345.569 407.689 346.215 407.689C347.25 407.689 348.008 407.454 348.491 406.983C348.973 406.513 349.214 405.796 349.214 404.832V404.338C348.837 404.749 348.379 405.061 347.838 405.272C347.297 405.484 346.703 405.59 346.057 405.59C345.163 405.59 344.352 405.402 343.623 405.026C342.906 404.638 342.335 404.097 341.912 403.403C341.5 402.709 341.295 401.916 341.295 401.022C341.295 400.128 341.5 399.341 341.912 398.659C342.335 397.965 342.906 397.43 343.623 397.054C344.352 396.677 345.163 396.489 346.057 396.489C346.739 396.489 347.356 396.601 347.909 396.824C348.473 397.048 348.943 397.389 349.32 397.847V396.595H351.418ZM346.392 403.72C347.227 403.72 347.909 403.473 348.438 402.98C348.979 402.474 349.249 401.821 349.249 401.022C349.249 400.234 348.979 399.593 348.438 399.099C347.909 398.606 347.227 398.359 346.392 398.359C345.545 398.359 344.851 398.606 344.311 399.099C343.781 399.593 343.517 400.234 343.517 401.022C343.517 401.821 343.781 402.474 344.311 402.98C344.851 403.473 345.545 403.72 346.392 403.72ZM363.17 401.357C363.17 401.51 363.159 401.727 363.135 402.01H355.745C355.875 402.703 356.21 403.256 356.751 403.667C357.303 404.067 357.985 404.267 358.796 404.267C359.831 404.267 360.684 403.926 361.354 403.244L362.536 404.602C362.112 405.108 361.577 405.49 360.931 405.749C360.284 406.007 359.555 406.137 358.744 406.137C357.709 406.137 356.798 405.931 356.01 405.519C355.222 405.108 354.611 404.538 354.176 403.809C353.752 403.068 353.541 402.233 353.541 401.304C353.541 400.387 353.746 399.564 354.158 398.835C354.581 398.094 355.163 397.518 355.904 397.107C356.645 396.695 357.48 396.489 358.408 396.489C359.326 396.489 360.143 396.695 360.86 397.107C361.589 397.506 362.153 398.077 362.553 398.817C362.965 399.546 363.17 400.393 363.17 401.357ZM358.408 398.253C357.703 398.253 357.103 398.465 356.609 398.888C356.127 399.299 355.833 399.852 355.728 400.546H361.072C360.978 399.864 360.69 399.311 360.207 398.888C359.725 398.465 359.126 398.253 358.408 398.253ZM368.198 406.137C367.434 406.137 366.687 406.037 365.958 405.837C365.229 405.637 364.647 405.384 364.212 405.078L365.059 403.403C365.482 403.685 365.988 403.914 366.576 404.091C367.175 404.255 367.763 404.338 368.339 404.338C369.656 404.338 370.315 403.991 370.315 403.297C370.315 402.968 370.144 402.739 369.803 402.609C369.474 402.48 368.939 402.356 368.198 402.239C367.422 402.121 366.787 401.986 366.293 401.833C365.811 401.68 365.388 401.416 365.024 401.04C364.671 400.652 364.494 400.117 364.494 399.435C364.494 398.541 364.865 397.83 365.606 397.301C366.358 396.76 367.369 396.489 368.639 396.489C369.286 396.489 369.933 396.566 370.579 396.719C371.226 396.86 371.755 397.054 372.167 397.301L371.32 398.976C370.52 398.506 369.621 398.271 368.622 398.271C367.975 398.271 367.481 398.37 367.14 398.57C366.811 398.759 366.646 399.011 366.646 399.329C366.646 399.682 366.823 399.934 367.175 400.087C367.54 400.228 368.098 400.363 368.851 400.493C369.603 400.61 370.221 400.746 370.703 400.898C371.185 401.051 371.596 401.31 371.937 401.674C372.29 402.039 372.466 402.556 372.466 403.227C372.466 404.108 372.084 404.814 371.32 405.343C370.556 405.872 369.515 406.137 368.198 406.137ZM380.026 405.502C379.768 405.713 379.45 405.872 379.074 405.978C378.71 406.084 378.322 406.137 377.91 406.137C376.875 406.137 376.076 405.866 375.511 405.325C374.947 404.784 374.665 403.997 374.665 402.962V398.429H373.113V396.666H374.665V394.514H376.869V396.666H379.391V398.429H376.869V402.909C376.869 403.368 376.981 403.72 377.205 403.967C377.428 404.202 377.751 404.32 378.175 404.32C378.668 404.32 379.08 404.191 379.409 403.932L380.026 405.502ZM385.438 396.489C386.825 396.489 387.884 396.824 388.613 397.495C389.353 398.153 389.724 399.152 389.724 400.493V406.013H387.643V404.867C387.372 405.278 386.984 405.596 386.479 405.819C385.985 406.031 385.385 406.137 384.68 406.137C383.974 406.137 383.357 406.019 382.828 405.784C382.299 405.537 381.887 405.202 381.593 404.779C381.311 404.344 381.17 403.856 381.17 403.315C381.17 402.468 381.481 401.792 382.105 401.286C382.739 400.769 383.733 400.51 385.085 400.51H387.519V400.369C387.519 399.711 387.319 399.205 386.919 398.853C386.531 398.5 385.949 398.323 385.173 398.323C384.644 398.323 384.121 398.406 383.604 398.57C383.098 398.735 382.669 398.964 382.316 399.258L381.452 397.653C381.946 397.277 382.54 396.989 383.233 396.789C383.927 396.589 384.662 396.489 385.438 396.489ZM385.138 404.532C385.691 404.532 386.179 404.408 386.602 404.161C387.037 403.903 387.343 403.538 387.519 403.068V401.974H385.244C383.974 401.974 383.339 402.392 383.339 403.227C383.339 403.626 383.498 403.944 383.815 404.179C384.133 404.414 384.574 404.532 385.138 404.532ZM386.902 395.308C386.608 395.308 386.349 395.249 386.126 395.131C385.914 395.014 385.65 394.837 385.332 394.602C385.144 394.449 384.985 394.338 384.856 394.267C384.738 394.185 384.621 394.144 384.503 394.144C384.256 394.144 384.05 394.238 383.886 394.426C383.733 394.614 383.651 394.873 383.639 395.202H382.457C382.469 394.484 382.645 393.914 382.986 393.491C383.339 393.056 383.798 392.838 384.362 392.838C384.656 392.838 384.909 392.897 385.12 393.015C385.344 393.132 385.614 393.309 385.932 393.544C386.12 393.697 386.273 393.814 386.39 393.897C386.52 393.967 386.643 394.002 386.761 394.002C387.008 394.002 387.208 393.914 387.36 393.738C387.525 393.561 387.613 393.315 387.625 392.997H388.807C388.783 393.691 388.601 394.249 388.26 394.673C387.919 395.096 387.466 395.308 386.902 395.308ZM396.872 406.137C395.92 406.137 395.061 405.931 394.297 405.519C393.533 405.108 392.933 404.538 392.498 403.809C392.075 403.068 391.863 402.233 391.863 401.304C391.863 400.375 392.075 399.546 392.498 398.817C392.933 398.088 393.533 397.518 394.297 397.107C395.061 396.695 395.92 396.489 396.872 396.489C397.836 396.489 398.7 396.695 399.465 397.107C400.229 397.518 400.823 398.088 401.246 398.817C401.681 399.546 401.899 400.375 401.899 401.304C401.899 402.233 401.681 403.068 401.246 403.809C400.823 404.538 400.229 405.108 399.465 405.519C398.7 405.931 397.836 406.137 396.872 406.137ZM396.872 404.249C397.683 404.249 398.354 403.979 398.883 403.438C399.412 402.897 399.676 402.186 399.676 401.304C399.676 400.422 399.412 399.711 398.883 399.17C398.354 398.629 397.683 398.359 396.872 398.359C396.061 398.359 395.391 398.629 394.861 399.17C394.344 399.711 394.085 400.422 394.085 401.304C394.085 402.186 394.344 402.897 394.861 403.438C395.391 403.979 396.061 404.249 396.872 404.249ZM217.935 417.489C219.122 417.489 220.063 417.836 220.757 418.53C221.45 419.212 221.797 420.241 221.797 421.616V427.013H219.593V421.898C219.593 421.075 219.41 420.458 219.046 420.047C218.681 419.623 218.158 419.412 217.476 419.412C216.735 419.412 216.142 419.659 215.695 420.152C215.248 420.634 215.025 421.328 215.025 422.234V427.013H212.82V421.898C212.82 421.075 212.638 420.458 212.273 420.047C211.909 419.623 211.385 419.412 210.704 419.412C209.951 419.412 209.351 419.653 208.905 420.135C208.469 420.617 208.252 421.316 208.252 422.234V427.013H206.047V417.595H208.146V418.794C208.499 418.371 208.94 418.048 209.469 417.824C209.998 417.601 210.586 417.489 211.233 417.489C211.938 417.489 212.561 417.624 213.102 417.895C213.655 418.154 214.09 418.542 214.407 419.059C214.795 418.565 215.295 418.183 215.906 417.913C216.518 417.63 217.194 417.489 217.935 417.489ZM233.733 417.595V427.013H231.634V425.814C231.281 426.237 230.84 426.566 230.311 426.802C229.782 427.025 229.212 427.137 228.6 427.137C227.342 427.137 226.349 426.79 225.62 426.096C224.902 425.391 224.544 424.35 224.544 422.974V417.595H226.748V422.674C226.748 423.521 226.937 424.156 227.313 424.579C227.701 424.991 228.248 425.197 228.953 425.197C229.741 425.197 230.364 424.956 230.823 424.473C231.293 423.98 231.528 423.274 231.528 422.357V417.595H233.733ZM236.619 413.927H238.824V427.013H236.619V413.927ZM247.844 426.502C247.585 426.713 247.268 426.872 246.892 426.978C246.527 427.084 246.139 427.137 245.727 427.137C244.693 427.137 243.893 426.866 243.329 426.325C242.764 425.784 242.482 424.997 242.482 423.962V419.429H240.93V417.666H242.482V415.514H244.687V417.666H247.209V419.429H244.687V423.909C244.687 424.368 244.799 424.72 245.022 424.967C245.245 425.202 245.569 425.32 245.992 425.32C246.486 425.32 246.897 425.191 247.227 424.932L247.844 426.502ZM249.657 417.595H251.862V427.013H249.657V417.595ZM250.769 416.043C250.369 416.043 250.034 415.92 249.763 415.673C249.493 415.414 249.358 415.096 249.358 414.72C249.358 414.344 249.493 414.032 249.763 413.785C250.034 413.527 250.369 413.397 250.769 413.397C251.168 413.397 251.503 413.521 251.774 413.768C252.044 414.003 252.18 414.303 252.18 414.667C252.18 415.055 252.044 415.385 251.774 415.655C251.515 415.914 251.18 416.043 250.769 416.043ZM263.98 413.927V427.013H261.863V425.796C261.499 426.243 261.046 426.578 260.505 426.802C259.976 427.025 259.388 427.137 258.742 427.137C257.836 427.137 257.019 426.937 256.29 426.537C255.573 426.137 255.008 425.573 254.597 424.844C254.185 424.103 253.98 423.257 253.98 422.304C253.98 421.352 254.185 420.511 254.597 419.782C255.008 419.053 255.573 418.489 256.29 418.089C257.019 417.689 257.836 417.489 258.742 417.489C259.365 417.489 259.935 417.595 260.452 417.807C260.97 418.018 261.411 418.336 261.775 418.759V413.927H263.98ZM259.006 425.249C259.535 425.249 260.011 425.132 260.435 424.897C260.858 424.65 261.193 424.303 261.44 423.856C261.687 423.409 261.81 422.892 261.81 422.304C261.81 421.716 261.687 421.199 261.44 420.752C261.193 420.305 260.858 419.964 260.435 419.729C260.011 419.482 259.535 419.359 259.006 419.359C258.477 419.359 258.001 419.482 257.578 419.729C257.154 419.964 256.819 420.305 256.572 420.752C256.325 421.199 256.202 421.716 256.202 422.304C256.202 422.892 256.325 423.409 256.572 423.856C256.819 424.303 257.154 424.65 257.578 424.897C258.001 425.132 258.477 425.249 259.006 425.249ZM266.864 417.595H269.068V427.013H266.864V417.595ZM267.975 416.043C267.575 416.043 267.24 415.92 266.97 415.673C266.699 415.414 266.564 415.096 266.564 414.72C266.564 414.344 266.699 414.032 266.97 413.785C267.24 413.527 267.575 413.397 267.975 413.397C268.375 413.397 268.71 413.521 268.98 413.768C269.251 414.003 269.386 414.303 269.386 414.667C269.386 415.055 269.251 415.385 268.98 415.655C268.722 415.914 268.387 416.043 267.975 416.043ZM276.283 427.137C275.307 427.137 274.431 426.931 273.655 426.519C272.879 426.108 272.274 425.538 271.839 424.809C271.404 424.068 271.186 423.233 271.186 422.304C271.186 421.375 271.404 420.546 271.839 419.817C272.274 419.088 272.873 418.518 273.638 418.107C274.414 417.695 275.295 417.489 276.283 417.489C277.212 417.489 278.023 417.677 278.717 418.054C279.422 418.43 279.952 418.971 280.304 419.676L278.611 420.664C278.341 420.229 278 419.905 277.588 419.694C277.188 419.47 276.748 419.359 276.265 419.359C275.442 419.359 274.76 419.629 274.22 420.17C273.679 420.699 273.408 421.411 273.408 422.304C273.408 423.198 273.673 423.915 274.202 424.456C274.743 424.985 275.431 425.249 276.265 425.249C276.748 425.249 277.188 425.144 277.588 424.932C278 424.709 278.341 424.379 278.611 423.944L280.304 424.932C279.94 425.638 279.405 426.184 278.699 426.572C278.006 426.949 277.2 427.137 276.283 427.137ZM282.21 417.595H284.415V427.013H282.21V417.595ZM283.321 416.043C282.921 416.043 282.586 415.92 282.316 415.673C282.045 415.414 281.91 415.096 281.91 414.72C281.91 414.344 282.045 414.032 282.316 413.785C282.586 413.527 282.921 413.397 283.321 413.397C283.721 413.397 284.056 413.521 284.327 413.768C284.597 414.003 284.732 414.303 284.732 414.667C284.732 415.055 284.597 415.385 284.327 415.655C284.068 415.914 283.733 416.043 283.321 416.043ZM292.529 417.489C293.446 417.489 294.263 417.689 294.98 418.089C295.709 418.489 296.28 419.053 296.691 419.782C297.103 420.511 297.308 421.352 297.308 422.304C297.308 423.257 297.103 424.103 296.691 424.844C296.28 425.573 295.709 426.137 294.98 426.537C294.263 426.937 293.446 427.137 292.529 427.137C291.259 427.137 290.254 426.713 289.513 425.867V430.435H287.308V417.595H289.407V418.83C289.772 418.383 290.218 418.048 290.747 417.824C291.288 417.601 291.882 417.489 292.529 417.489ZM292.282 425.249C293.093 425.249 293.758 424.979 294.275 424.438C294.804 423.897 295.069 423.186 295.069 422.304C295.069 421.422 294.804 420.711 294.275 420.17C293.758 419.629 293.093 419.359 292.282 419.359C291.753 419.359 291.277 419.482 290.853 419.729C290.43 419.964 290.095 420.305 289.848 420.752C289.601 421.199 289.478 421.716 289.478 422.304C289.478 422.892 289.601 423.409 289.848 423.856C290.095 424.303 290.43 424.65 290.853 424.897C291.277 425.132 291.753 425.249 292.282 425.249ZM299.399 413.927H301.604V427.013H299.399V413.927ZM304.497 417.595H306.702V427.013H304.497V417.595ZM305.609 416.043C305.209 416.043 304.874 415.92 304.603 415.673C304.333 415.414 304.198 415.096 304.198 414.72C304.198 414.344 304.333 414.032 304.603 413.785C304.874 413.527 305.209 413.397 305.609 413.397C306.008 413.397 306.343 413.521 306.614 413.768C306.884 414.003 307.02 414.303 307.02 414.667C307.02 415.055 306.884 415.385 306.614 415.655C306.355 415.914 306.02 416.043 305.609 416.043ZM314.94 417.489C316.127 417.489 317.08 417.836 317.797 418.53C318.514 419.224 318.873 420.252 318.873 421.616V427.013H316.668V421.898C316.668 421.075 316.474 420.458 316.086 420.047C315.698 419.623 315.145 419.412 314.428 419.412C313.617 419.412 312.976 419.659 312.506 420.152C312.035 420.634 311.8 421.334 311.8 422.251V427.013H309.596V417.595H311.694V418.812C312.059 418.377 312.517 418.048 313.07 417.824C313.623 417.601 314.246 417.489 314.94 417.489ZM325.267 417.489C326.655 417.489 327.713 417.824 328.442 418.495C329.183 419.153 329.553 420.152 329.553 421.493V427.013H327.472V425.867C327.201 426.278 326.813 426.596 326.308 426.819C325.814 427.031 325.214 427.137 324.509 427.137C323.803 427.137 323.186 427.019 322.657 426.784C322.128 426.537 321.716 426.202 321.422 425.779C321.14 425.344 320.999 424.856 320.999 424.315C320.999 423.468 321.311 422.792 321.934 422.286C322.569 421.769 323.562 421.51 324.915 421.51H327.348V421.369C327.348 420.711 327.149 420.205 326.749 419.853C326.361 419.5 325.779 419.323 325.003 419.323C324.474 419.323 323.95 419.406 323.433 419.57C322.927 419.735 322.498 419.964 322.146 420.258L321.281 418.653C321.775 418.277 322.369 417.989 323.063 417.789C323.756 417.589 324.491 417.489 325.267 417.489ZM324.967 425.532C325.52 425.532 326.008 425.408 326.431 425.161C326.866 424.903 327.172 424.538 327.348 424.068V422.974H325.073C323.803 422.974 323.169 423.392 323.169 424.227C323.169 424.626 323.327 424.944 323.645 425.179C323.962 425.414 324.403 425.532 324.967 425.532ZM334.481 418.971C335.116 417.983 336.233 417.489 337.832 417.489V419.588C337.644 419.553 337.474 419.535 337.321 419.535C336.462 419.535 335.792 419.788 335.31 420.293C334.828 420.787 334.587 421.505 334.587 422.445V427.013H332.382V417.595H334.481V418.971ZM348.261 417.489C349.648 417.489 350.706 417.824 351.435 418.495C352.176 419.153 352.547 420.152 352.547 421.493V427.013H350.465V425.867C350.195 426.278 349.807 426.596 349.301 426.819C348.808 427.031 348.208 427.137 347.502 427.137C346.797 427.137 346.18 427.019 345.651 426.784C345.121 426.537 344.71 426.202 344.416 425.779C344.134 425.344 343.993 424.856 343.993 424.315C343.993 423.468 344.304 422.792 344.927 422.286C345.562 421.769 346.556 421.51 347.908 421.51H350.342V421.369C350.342 420.711 350.142 420.205 349.742 419.853C349.354 419.5 348.772 419.323 347.996 419.323C347.467 419.323 346.944 419.406 346.427 419.57C345.921 419.735 345.492 419.964 345.139 420.258L344.275 418.653C344.769 418.277 345.362 417.989 346.056 417.789C346.75 417.589 347.485 417.489 348.261 417.489ZM347.961 425.532C348.514 425.532 349.002 425.408 349.425 425.161C349.86 424.903 350.166 424.538 350.342 424.068V422.974H348.067C346.797 422.974 346.162 423.392 346.162 424.227C346.162 424.626 346.321 424.944 346.638 425.179C346.956 425.414 347.397 425.532 347.961 425.532ZM358.286 427.137C357.522 427.137 356.775 427.037 356.046 426.837C355.317 426.637 354.735 426.384 354.3 426.078L355.147 424.403C355.57 424.685 356.076 424.914 356.663 425.091C357.263 425.255 357.851 425.338 358.427 425.338C359.744 425.338 360.402 424.991 360.402 424.297C360.402 423.968 360.232 423.739 359.891 423.609C359.562 423.48 359.027 423.356 358.286 423.239C357.51 423.121 356.875 422.986 356.381 422.833C355.899 422.68 355.476 422.416 355.111 422.04C354.759 421.652 354.582 421.117 354.582 420.435C354.582 419.541 354.953 418.83 355.693 418.301C356.446 417.76 357.457 417.489 358.727 417.489C359.374 417.489 360.02 417.566 360.667 417.719C361.314 417.86 361.843 418.054 362.254 418.301L361.408 419.976C360.608 419.506 359.709 419.271 358.709 419.271C358.063 419.271 357.569 419.37 357.228 419.57C356.899 419.759 356.734 420.011 356.734 420.329C356.734 420.682 356.91 420.934 357.263 421.087C357.628 421.228 358.186 421.363 358.939 421.493C359.691 421.61 360.308 421.746 360.79 421.898C361.273 422.051 361.684 422.31 362.025 422.674C362.378 423.039 362.554 423.556 362.554 424.227C362.554 425.108 362.172 425.814 361.408 426.343C360.644 426.872 359.603 427.137 358.286 427.137ZM367.363 427.137C366.599 427.137 365.852 427.037 365.123 426.837C364.394 426.637 363.812 426.384 363.377 426.078L364.224 424.403C364.647 424.685 365.152 424.914 365.74 425.091C366.34 425.255 366.928 425.338 367.504 425.338C368.821 425.338 369.479 424.991 369.479 424.297C369.479 423.968 369.309 423.739 368.968 423.609C368.639 423.48 368.104 423.356 367.363 423.239C366.587 423.121 365.952 422.986 365.458 422.833C364.976 422.68 364.553 422.416 364.188 422.04C363.835 421.652 363.659 421.117 363.659 420.435C363.659 419.541 364.03 418.83 364.77 418.301C365.523 417.76 366.534 417.489 367.804 417.489C368.451 417.489 369.097 417.566 369.744 417.719C370.391 417.86 370.92 418.054 371.331 418.301L370.485 419.976C369.685 419.506 368.786 419.271 367.786 419.271C367.139 419.271 366.646 419.37 366.305 419.57C365.975 419.759 365.811 420.011 365.811 420.329C365.811 420.682 365.987 420.934 366.34 421.087C366.704 421.228 367.263 421.363 368.015 421.493C368.768 421.61 369.385 421.746 369.867 421.898C370.349 422.051 370.761 422.31 371.102 422.674C371.455 423.039 371.631 423.556 371.631 424.227C371.631 425.108 371.249 425.814 370.485 426.343C369.72 426.872 368.68 427.137 367.363 427.137ZM377.762 427.137C376.81 427.137 375.952 426.931 375.187 426.519C374.423 426.108 373.824 425.538 373.389 424.809C372.965 424.068 372.754 423.233 372.754 422.304C372.754 421.375 372.965 420.546 373.389 419.817C373.824 419.088 374.423 418.518 375.187 418.107C375.952 417.695 376.81 417.489 377.762 417.489C378.727 417.489 379.591 417.695 380.355 418.107C381.119 418.518 381.713 419.088 382.136 419.817C382.571 420.546 382.789 421.375 382.789 422.304C382.789 423.233 382.571 424.068 382.136 424.809C381.713 425.538 381.119 426.108 380.355 426.519C379.591 426.931 378.727 427.137 377.762 427.137ZM377.762 425.249C378.574 425.249 379.244 424.979 379.773 424.438C380.302 423.897 380.567 423.186 380.567 422.304C380.567 421.422 380.302 420.711 379.773 420.17C379.244 419.629 378.574 419.359 377.762 419.359C376.951 419.359 376.281 419.629 375.752 420.17C375.235 420.711 374.976 421.422 374.976 422.304C374.976 423.186 375.235 423.897 375.752 424.438C376.281 424.979 376.951 425.249 377.762 425.249ZM389.218 427.137C388.242 427.137 387.366 426.931 386.59 426.519C385.814 426.108 385.209 425.538 384.774 424.809C384.339 424.068 384.121 423.233 384.121 422.304C384.121 421.375 384.339 420.546 384.774 419.817C385.209 419.088 385.808 418.518 386.573 418.107C387.349 417.695 388.231 417.489 389.218 417.489C390.147 417.489 390.958 417.677 391.652 418.054C392.358 418.43 392.887 418.971 393.239 419.676L391.546 420.664C391.276 420.229 390.935 419.905 390.523 419.694C390.124 419.47 389.683 419.359 389.201 419.359C388.378 419.359 387.696 419.629 387.155 420.17C386.614 420.699 386.343 421.411 386.343 422.304C386.343 423.198 386.608 423.915 387.137 424.456C387.678 424.985 388.366 425.249 389.201 425.249C389.683 425.249 390.124 425.144 390.523 424.932C390.935 424.709 391.276 424.379 391.546 423.944L393.239 424.932C392.875 425.638 392.34 426.184 391.635 426.572C390.941 426.949 390.135 427.137 389.218 427.137ZM395.145 417.595H397.35V427.013H395.145V417.595ZM396.256 416.043C395.857 416.043 395.521 415.92 395.251 415.673C394.981 415.414 394.845 415.096 394.845 414.72C394.845 414.344 394.981 414.032 395.251 413.785C395.521 413.527 395.857 413.397 396.256 413.397C396.656 413.397 396.991 413.521 397.262 413.768C397.532 414.003 397.667 414.303 397.667 414.667C397.667 415.055 397.532 415.385 397.262 415.655C397.003 415.914 396.668 416.043 396.256 416.043ZM403.841 417.489C405.229 417.489 406.287 417.824 407.016 418.495C407.757 419.153 408.127 420.152 408.127 421.493V427.013H406.046V425.867C405.776 426.278 405.388 426.596 404.882 426.819C404.388 427.031 403.788 427.137 403.083 427.137C402.377 427.137 401.76 427.019 401.231 426.784C400.702 426.537 400.29 426.202 399.996 425.779C399.714 425.344 399.573 424.856 399.573 424.315C399.573 423.468 399.885 422.792 400.508 422.286C401.143 421.769 402.136 421.51 403.489 421.51H405.923V421.369C405.923 420.711 405.723 420.205 405.323 419.853C404.935 419.5 404.353 419.323 403.577 419.323C403.048 419.323 402.524 419.406 402.007 419.57C401.502 419.735 401.072 419.964 400.72 420.258L399.855 418.653C400.349 418.277 400.943 417.989 401.637 417.789C402.33 417.589 403.065 417.489 403.841 417.489ZM403.542 425.532C404.094 425.532 404.582 425.408 405.005 425.161C405.44 424.903 405.746 424.538 405.923 424.068V422.974H403.647C402.377 422.974 401.743 423.392 401.743 424.227C401.743 424.626 401.901 424.944 402.219 425.179C402.536 425.414 402.977 425.532 403.542 425.532ZM420.267 413.927V427.013H418.15V425.796C417.786 426.243 417.333 426.578 416.792 426.802C416.263 427.025 415.675 427.137 415.029 427.137C414.123 427.137 413.306 426.937 412.577 426.537C411.86 426.137 411.295 425.573 410.884 424.844C410.472 424.103 410.267 423.257 410.267 422.304C410.267 421.352 410.472 420.511 410.884 419.782C411.295 419.053 411.86 418.489 412.577 418.089C413.306 417.689 414.123 417.489 415.029 417.489C415.652 417.489 416.222 417.595 416.739 417.807C417.257 418.018 417.698 418.336 418.062 418.759V413.927H420.267ZM415.293 425.249C415.822 425.249 416.298 425.132 416.722 424.897C417.145 424.65 417.48 424.303 417.727 423.856C417.974 423.409 418.097 422.892 418.097 422.304C418.097 421.716 417.974 421.199 417.727 420.752C417.48 420.305 417.145 419.964 416.722 419.729C416.298 419.482 415.822 419.359 415.293 419.359C414.764 419.359 414.288 419.482 413.865 419.729C413.441 419.964 413.106 420.305 412.859 420.752C412.612 421.199 412.489 421.716 412.489 422.304C412.489 422.892 412.612 423.409 412.859 423.856C413.106 424.303 413.441 424.65 413.865 424.897C414.288 425.132 414.764 425.249 415.293 425.249ZM427.384 427.137C426.431 427.137 425.573 426.931 424.809 426.519C424.044 426.108 423.445 425.538 423.01 424.809C422.586 424.068 422.375 423.233 422.375 422.304C422.375 421.375 422.586 420.546 423.01 419.817C423.445 419.088 424.044 418.518 424.809 418.107C425.573 417.695 426.431 417.489 427.384 417.489C428.348 417.489 429.212 417.695 429.976 418.107C430.741 418.518 431.334 419.088 431.758 419.817C432.193 420.546 432.41 421.375 432.41 422.304C432.41 423.233 432.193 424.068 431.758 424.809C431.334 425.538 430.741 426.108 429.976 426.519C429.212 426.931 428.348 427.137 427.384 427.137ZM427.384 425.249C428.195 425.249 428.865 424.979 429.394 424.438C429.923 423.897 430.188 423.186 430.188 422.304C430.188 421.422 429.923 420.711 429.394 420.17C428.865 419.629 428.195 419.359 427.384 419.359C426.572 419.359 425.902 419.629 425.373 420.17C424.856 420.711 424.597 421.422 424.597 422.304C424.597 423.186 424.856 423.897 425.373 424.438C425.902 424.979 426.572 425.249 427.384 425.249ZM221.53 438.489C222.917 438.489 223.975 438.824 224.704 439.495C225.445 440.153 225.815 441.152 225.815 442.493V448.013H223.734V446.867C223.464 447.278 223.076 447.596 222.57 447.819C222.076 448.031 221.477 448.137 220.771 448.137C220.066 448.137 219.448 448.019 218.919 447.784C218.39 447.537 217.979 447.202 217.685 446.779C217.403 446.344 217.261 445.856 217.261 445.315C217.261 444.468 217.573 443.792 218.196 443.286C218.831 442.769 219.825 442.51 221.177 442.51H223.611V442.369C223.611 441.711 223.411 441.205 223.011 440.853C222.623 440.5 222.041 440.323 221.265 440.323C220.736 440.323 220.213 440.406 219.695 440.57C219.19 440.735 218.761 440.964 218.408 441.258L217.544 439.653C218.037 439.277 218.631 438.989 219.325 438.789C220.019 438.589 220.754 438.489 221.53 438.489ZM221.23 446.532C221.782 446.532 222.27 446.408 222.694 446.161C223.129 445.903 223.434 445.538 223.611 445.068V443.974H221.336C220.066 443.974 219.431 444.392 219.431 445.227C219.431 445.626 219.59 445.944 219.907 446.179C220.224 446.414 220.665 446.532 221.23 446.532ZM232.964 448.137C232.011 448.137 231.153 447.931 230.389 447.519C229.624 447.108 229.025 446.538 228.59 445.809C228.166 445.068 227.955 444.233 227.955 443.304C227.955 442.375 228.166 441.546 228.59 440.817C229.025 440.088 229.624 439.518 230.389 439.107C231.153 438.695 232.011 438.489 232.964 438.489C233.928 438.489 234.792 438.695 235.556 439.107C236.321 439.518 236.914 440.088 237.338 440.817C237.773 441.546 237.99 442.375 237.99 443.304C237.99 444.233 237.773 445.068 237.338 445.809C236.914 446.538 236.321 447.108 235.556 447.519C234.792 447.931 233.928 448.137 232.964 448.137ZM232.964 446.249C233.775 446.249 234.445 445.979 234.974 445.438C235.503 444.897 235.768 444.186 235.768 443.304C235.768 442.422 235.503 441.711 234.974 441.17C234.445 440.629 233.775 440.359 232.964 440.359C232.152 440.359 231.482 440.629 230.953 441.17C230.436 441.711 230.177 442.422 230.177 443.304C230.177 444.186 230.436 444.897 230.953 445.438C231.482 445.979 232.152 446.249 232.964 446.249ZM256.155 435.667V448.013H254.267L247.459 439.653V448.013H245.184V435.667H247.071L253.879 444.027V435.667H256.155ZM268.369 438.595V448.013H266.271V446.814C265.918 447.237 265.477 447.566 264.948 447.802C264.419 448.025 263.848 448.137 263.237 448.137C261.979 448.137 260.985 447.79 260.256 447.096C259.539 446.391 259.18 445.35 259.18 443.974V438.595H261.385V443.674C261.385 444.521 261.573 445.156 261.949 445.579C262.338 445.991 262.884 446.197 263.59 446.197C264.378 446.197 265.001 445.956 265.459 445.473C265.93 444.98 266.165 444.274 266.165 443.357V438.595H268.369ZM264.666 434.891H267.258L264.189 437.308H262.285L264.666 434.891ZM275.577 448.137C274.601 448.137 273.725 447.931 272.949 447.519C272.173 447.108 271.567 446.538 271.132 445.809C270.697 445.068 270.48 444.233 270.48 443.304C270.48 442.375 270.697 441.546 271.132 440.817C271.567 440.088 272.167 439.518 272.931 439.107C273.707 438.695 274.589 438.489 275.577 438.489C276.506 438.489 277.317 438.677 278.011 439.054C278.716 439.43 279.245 439.971 279.598 440.676L277.905 441.664C277.635 441.229 277.294 440.905 276.882 440.694C276.482 440.47 276.041 440.359 275.559 440.359C274.736 440.359 274.054 440.629 273.513 441.17C272.973 441.699 272.702 442.411 272.702 443.304C272.702 444.198 272.967 444.915 273.496 445.456C274.037 445.985 274.724 446.249 275.559 446.249C276.041 446.249 276.482 446.144 276.882 445.932C277.294 445.709 277.635 445.379 277.905 444.944L279.598 445.932C279.234 446.638 278.699 447.184 277.993 447.572C277.299 447.949 276.494 448.137 275.577 448.137ZM281.418 434.927H283.622V448.013H281.418V434.927ZM295.37 443.357C295.37 443.51 295.358 443.727 295.334 444.01H287.945C288.074 444.703 288.409 445.256 288.95 445.667C289.503 446.067 290.184 446.267 290.996 446.267C292.03 446.267 292.883 445.926 293.553 445.244L294.735 446.602C294.312 447.108 293.777 447.49 293.13 447.749C292.483 448.007 291.754 448.137 290.943 448.137C289.908 448.137 288.997 447.931 288.209 447.519C287.421 447.108 286.81 446.538 286.375 445.809C285.952 445.068 285.74 444.233 285.74 443.304C285.74 442.387 285.946 441.564 286.357 440.835C286.781 440.094 287.363 439.518 288.103 439.107C288.844 438.695 289.679 438.489 290.608 438.489C291.525 438.489 292.342 438.695 293.059 439.107C293.788 439.506 294.353 440.077 294.752 440.817C295.164 441.546 295.37 442.393 295.37 443.357ZM290.608 440.253C289.902 440.253 289.303 440.465 288.809 440.888C288.327 441.299 288.033 441.852 287.927 442.546H293.271C293.177 441.864 292.889 441.311 292.407 440.888C291.925 440.465 291.325 440.253 290.608 440.253ZM301.72 448.137C300.768 448.137 299.91 447.931 299.145 447.519C298.381 447.108 297.781 446.538 297.346 445.809C296.923 445.068 296.711 444.233 296.711 443.304C296.711 442.375 296.923 441.546 297.346 440.817C297.781 440.088 298.381 439.518 299.145 439.107C299.91 438.695 300.768 438.489 301.72 438.489C302.684 438.489 303.549 438.695 304.313 439.107C305.077 439.518 305.671 440.088 306.094 440.817C306.529 441.546 306.747 442.375 306.747 443.304C306.747 444.233 306.529 445.068 306.094 445.809C305.671 446.538 305.077 447.108 304.313 447.519C303.549 447.931 302.684 448.137 301.72 448.137ZM301.72 446.249C302.532 446.249 303.202 445.979 303.731 445.438C304.26 444.897 304.525 444.186 304.525 443.304C304.525 442.422 304.26 441.711 303.731 441.17C303.202 440.629 302.532 440.359 301.72 440.359C300.909 440.359 300.239 440.629 299.71 441.17C299.192 441.711 298.934 442.422 298.934 443.304C298.934 444.186 299.192 444.897 299.71 445.438C300.239 445.979 300.909 446.249 301.72 446.249ZM319.02 435.667C320.09 435.667 321.019 435.844 321.807 436.196C322.607 436.549 323.218 437.055 323.641 437.713C324.065 438.372 324.276 439.154 324.276 440.059C324.276 440.953 324.065 441.734 323.641 442.405C323.218 443.063 322.607 443.569 321.807 443.921C321.019 444.274 320.09 444.451 319.02 444.451H316.234V448.013H313.941V435.667H319.02ZM318.915 442.51C319.914 442.51 320.672 442.299 321.19 441.876C321.707 441.452 321.966 440.847 321.966 440.059C321.966 439.271 321.707 438.666 321.19 438.242C320.672 437.819 319.914 437.607 318.915 437.607H316.234V442.51H318.915ZM335.173 443.357C335.173 443.51 335.162 443.727 335.138 444.01H327.748C327.878 444.703 328.213 445.256 328.754 445.667C329.306 446.067 329.988 446.267 330.8 446.267C331.834 446.267 332.687 445.926 333.357 445.244L334.539 446.602C334.115 447.108 333.58 447.49 332.934 447.749C332.287 448.007 331.558 448.137 330.747 448.137C329.712 448.137 328.801 447.931 328.013 447.519C327.225 447.108 326.614 446.538 326.179 445.809C325.755 445.068 325.544 444.233 325.544 443.304C325.544 442.387 325.749 441.564 326.161 440.835C326.584 440.094 327.166 439.518 327.907 439.107C328.648 438.695 329.483 438.489 330.412 438.489C331.329 438.489 332.146 438.695 332.863 439.107C333.592 439.506 334.156 440.077 334.556 440.817C334.968 441.546 335.173 442.393 335.173 443.357ZM330.412 440.253C329.706 440.253 329.106 440.465 328.613 440.888C328.13 441.299 327.837 441.852 327.731 442.546H333.075C332.981 441.864 332.693 441.311 332.21 440.888C331.728 440.465 331.129 440.253 330.412 440.253ZM346.515 434.927V448.013H344.399V446.796C344.034 447.243 343.582 447.578 343.041 447.802C342.512 448.025 341.924 448.137 341.277 448.137C340.372 448.137 339.555 447.937 338.826 447.537C338.108 447.137 337.544 446.573 337.132 445.844C336.721 445.103 336.515 444.257 336.515 443.304C336.515 442.352 336.721 441.511 337.132 440.782C337.544 440.053 338.108 439.489 338.826 439.089C339.555 438.689 340.372 438.489 341.277 438.489C341.9 438.489 342.471 438.595 342.988 438.807C343.505 439.018 343.946 439.336 344.311 439.759V434.927H346.515ZM341.542 446.249C342.071 446.249 342.547 446.132 342.97 445.897C343.394 445.65 343.729 445.303 343.976 444.856C344.222 444.409 344.346 443.892 344.346 443.304C344.346 442.716 344.222 442.199 343.976 441.752C343.729 441.305 343.394 440.964 342.97 440.729C342.547 440.482 342.071 440.359 341.542 440.359C341.013 440.359 340.536 440.482 340.113 440.729C339.69 440.964 339.355 441.305 339.108 441.752C338.861 442.199 338.737 442.716 338.737 443.304C338.737 443.892 338.861 444.409 339.108 444.856C339.355 445.303 339.69 445.65 340.113 445.897C340.536 446.132 341.013 446.249 341.542 446.249ZM352.997 438.489C354.385 438.489 355.443 438.824 356.172 439.495C356.913 440.153 357.283 441.152 357.283 442.493V448.013H355.202V446.867C354.931 447.278 354.543 447.596 354.038 447.819C353.544 448.031 352.944 448.137 352.239 448.137C351.533 448.137 350.916 448.019 350.387 447.784C349.858 447.537 349.446 447.202 349.152 446.779C348.87 446.344 348.729 445.856 348.729 445.315C348.729 444.468 349.041 443.792 349.664 443.286C350.299 442.769 351.292 442.51 352.645 442.51H355.078V442.369C355.078 441.711 354.879 441.205 354.479 440.853C354.091 440.5 353.509 440.323 352.733 440.323C352.204 440.323 351.68 440.406 351.163 440.57C350.657 440.735 350.228 440.964 349.876 441.258L349.011 439.653C349.505 439.277 350.099 438.989 350.793 438.789C351.486 438.589 352.221 438.489 352.997 438.489ZM352.697 446.532C353.25 446.532 353.738 446.408 354.161 446.161C354.596 445.903 354.902 445.538 355.078 445.068V443.974H352.803C351.533 443.974 350.898 444.392 350.898 445.227C350.898 445.626 351.057 445.944 351.375 446.179C351.692 446.414 352.133 446.532 352.697 446.532ZM369.546 438.595V446.585C369.546 449.9 367.853 451.558 364.467 451.558C363.561 451.558 362.703 451.441 361.892 451.205C361.08 450.982 360.41 450.653 359.881 450.218L360.869 448.56C361.28 448.901 361.798 449.171 362.421 449.371C363.056 449.583 363.697 449.689 364.343 449.689C365.378 449.689 366.136 449.454 366.618 448.983C367.1 448.513 367.342 447.796 367.342 446.832V446.338C366.965 446.749 366.507 447.061 365.966 447.272C365.425 447.484 364.831 447.59 364.185 447.59C363.291 447.59 362.48 447.402 361.751 447.026C361.033 446.638 360.463 446.097 360.04 445.403C359.628 444.709 359.423 443.916 359.423 443.022C359.423 442.128 359.628 441.341 360.04 440.659C360.463 439.965 361.033 439.43 361.751 439.054C362.48 438.677 363.291 438.489 364.185 438.489C364.866 438.489 365.484 438.601 366.036 438.824C366.601 439.048 367.071 439.389 367.447 439.847V438.595H369.546ZM364.52 445.72C365.354 445.72 366.036 445.473 366.565 444.98C367.106 444.474 367.377 443.821 367.377 443.022C367.377 442.234 367.106 441.593 366.565 441.099C366.036 440.606 365.354 440.359 364.52 440.359C363.673 440.359 362.979 440.606 362.438 441.099C361.909 441.593 361.645 442.234 361.645 443.022C361.645 443.821 361.909 444.474 362.438 444.98C362.979 445.473 363.673 445.72 364.52 445.72ZM376.677 448.137C375.725 448.137 374.867 447.931 374.102 447.519C373.338 447.108 372.738 446.538 372.303 445.809C371.88 445.068 371.668 444.233 371.668 443.304C371.668 442.375 371.88 441.546 372.303 440.817C372.738 440.088 373.338 439.518 374.102 439.107C374.867 438.695 375.725 438.489 376.677 438.489C377.642 438.489 378.506 438.695 379.27 439.107C380.034 439.518 380.628 440.088 381.051 440.817C381.486 441.546 381.704 442.375 381.704 443.304C381.704 444.233 381.486 445.068 381.051 445.809C380.628 446.538 380.034 447.108 379.27 447.519C378.506 447.931 377.642 448.137 376.677 448.137ZM376.677 446.249C377.489 446.249 378.159 445.979 378.688 445.438C379.217 444.897 379.482 444.186 379.482 443.304C379.482 442.422 379.217 441.711 378.688 441.17C378.159 440.629 377.489 440.359 376.677 440.359C375.866 440.359 375.196 440.629 374.667 441.17C374.149 441.711 373.891 442.422 373.891 443.304C373.891 444.186 374.149 444.897 374.667 445.438C375.196 445.979 375.866 446.249 376.677 446.249ZM377.559 434.891H380.152L377.083 437.308H375.178L377.559 434.891ZM393.16 438.595V446.585C393.16 449.9 391.467 451.558 388.08 451.558C387.175 451.558 386.317 451.441 385.505 451.205C384.694 450.982 384.024 450.653 383.495 450.218L384.482 448.56C384.894 448.901 385.411 449.171 386.034 449.371C386.669 449.583 387.31 449.689 387.957 449.689C388.991 449.689 389.75 449.454 390.232 448.983C390.714 448.513 390.955 447.796 390.955 446.832V446.338C390.579 446.749 390.12 447.061 389.579 447.272C389.039 447.484 388.445 447.59 387.798 447.59C386.904 447.59 386.093 447.402 385.364 447.026C384.647 446.638 384.077 446.097 383.653 445.403C383.242 444.709 383.036 443.916 383.036 443.022C383.036 442.128 383.242 441.341 383.653 440.659C384.077 439.965 384.647 439.43 385.364 439.054C386.093 438.677 386.904 438.489 387.798 438.489C388.48 438.489 389.097 438.601 389.65 438.824C390.214 439.048 390.685 439.389 391.061 439.847V438.595H393.16ZM388.133 445.72C388.968 445.72 389.65 445.473 390.179 444.98C390.72 444.474 390.99 443.821 390.99 443.022C390.99 442.234 390.72 441.593 390.179 441.099C389.65 440.606 388.968 440.359 388.133 440.359C387.287 440.359 386.593 440.606 386.052 441.099C385.523 441.593 385.258 442.234 385.258 443.022C385.258 443.821 385.523 444.474 386.052 444.98C386.593 445.473 387.287 445.72 388.133 445.72ZM396.058 438.595H398.263V448.013H396.058V438.595ZM397.169 437.043C396.769 437.043 396.434 436.92 396.164 436.673C395.893 436.414 395.758 436.096 395.758 435.72C395.758 435.344 395.893 435.032 396.164 434.785C396.434 434.527 396.769 434.397 397.169 434.397C397.569 434.397 397.904 434.521 398.175 434.768C398.445 435.003 398.58 435.303 398.58 435.667C398.58 436.055 398.445 436.385 398.175 436.655C397.916 436.914 397.581 437.043 397.169 437.043ZM405.477 448.137C404.501 448.137 403.625 447.931 402.849 447.519C402.073 447.108 401.468 446.538 401.033 445.809C400.598 445.068 400.38 444.233 400.38 443.304C400.38 442.375 400.598 441.546 401.033 440.817C401.468 440.088 402.068 439.518 402.832 439.107C403.608 438.695 404.49 438.489 405.477 438.489C406.406 438.489 407.218 438.677 407.911 439.054C408.617 439.43 409.146 439.971 409.499 440.676L407.805 441.664C407.535 441.229 407.194 440.905 406.782 440.694C406.383 440.47 405.942 440.359 405.46 440.359C404.637 440.359 403.955 440.629 403.414 441.17C402.873 441.699 402.602 442.411 402.602 443.304C402.602 444.198 402.867 444.915 403.396 445.456C403.937 445.985 404.625 446.249 405.46 446.249C405.942 446.249 406.383 446.144 406.782 445.932C407.194 445.709 407.535 445.379 407.805 444.944L409.499 445.932C409.134 446.638 408.599 447.184 407.894 447.572C407.2 447.949 406.394 448.137 405.477 448.137ZM415.499 448.137C414.547 448.137 413.689 447.931 412.924 447.519C412.16 447.108 411.56 446.538 411.125 445.809C410.702 445.068 410.49 444.233 410.49 443.304C410.49 442.375 410.702 441.546 411.125 440.817C411.56 440.088 412.16 439.518 412.924 439.107C413.689 438.695 414.547 438.489 415.499 438.489C416.464 438.489 417.328 438.695 418.092 439.107C418.856 439.518 419.45 440.088 419.873 440.817C420.308 441.546 420.526 442.375 420.526 443.304C420.526 444.233 420.308 445.068 419.873 445.809C419.45 446.538 418.856 447.108 418.092 447.519C417.328 447.931 416.464 448.137 415.499 448.137ZM415.499 446.249C416.311 446.249 416.981 445.979 417.51 445.438C418.039 444.897 418.304 444.186 418.304 443.304C418.304 442.422 418.039 441.711 417.51 441.17C416.981 440.629 416.311 440.359 415.499 440.359C414.688 440.359 414.018 440.629 413.489 441.17C412.971 441.711 412.713 442.422 412.713 443.304C412.713 444.186 412.971 444.897 413.489 445.438C414.018 445.979 414.688 446.249 415.499 446.249ZM291.424 472.435C290.731 471.365 290.196 470.124 289.819 468.713C289.455 467.302 289.273 465.791 289.273 464.181C289.273 462.57 289.455 461.059 289.819 459.648C290.196 458.225 290.731 456.985 291.424 455.927H293.523C292.806 457.196 292.277 458.507 291.936 459.86C291.607 461.2 291.442 462.64 291.442 464.181C291.442 465.721 291.607 467.167 291.936 468.519C292.277 469.86 292.806 471.165 293.523 472.435H291.424ZM306.534 456.667V469.013H304.646L297.839 460.653V469.013H295.563V456.667H297.451L304.258 465.027V456.667H306.534ZM318.748 459.595V469.013H316.65V467.814C316.297 468.237 315.856 468.566 315.327 468.802C314.798 469.025 314.227 469.137 313.616 469.137C312.358 469.137 311.364 468.79 310.635 468.096C309.918 467.391 309.56 466.35 309.56 464.974V459.595H311.764V464.674C311.764 465.521 311.952 466.156 312.329 466.579C312.717 466.991 313.263 467.197 313.969 467.197C314.757 467.197 315.38 466.956 315.838 466.473C316.309 465.98 316.544 465.274 316.544 464.357V459.595H318.748ZM326.926 456.667C327.996 456.667 328.925 456.844 329.713 457.196C330.512 457.549 331.124 458.055 331.547 458.713C331.97 459.372 332.182 460.154 332.182 461.059C332.182 461.953 331.97 462.734 331.547 463.405C331.124 464.063 330.512 464.569 329.713 464.921C328.925 465.274 327.996 465.451 326.926 465.451H324.139V469.013H321.847V456.667H326.926ZM326.82 463.51C327.82 463.51 328.578 463.299 329.095 462.876C329.613 462.452 329.871 461.847 329.871 461.059C329.871 460.271 329.613 459.666 329.095 459.242C328.578 458.819 327.82 458.607 326.82 458.607H324.139V463.51H326.82ZM343.079 464.357C343.079 464.51 343.067 464.727 343.044 465.01H335.654C335.783 465.703 336.118 466.256 336.659 466.667C337.212 467.067 337.894 467.267 338.705 467.267C339.74 467.267 340.592 466.926 341.263 466.244L342.444 467.602C342.021 468.108 341.486 468.49 340.839 468.749C340.193 469.007 339.464 469.137 338.652 469.137C337.618 469.137 336.706 468.931 335.919 468.519C335.131 468.108 334.519 467.538 334.084 466.809C333.661 466.068 333.449 465.233 333.449 464.304C333.449 463.387 333.655 462.564 334.067 461.835C334.49 461.094 335.072 460.518 335.813 460.107C336.553 459.695 337.388 459.489 338.317 459.489C339.234 459.489 340.051 459.695 340.769 460.107C341.498 460.506 342.062 461.077 342.462 461.817C342.873 462.546 343.079 463.393 343.079 464.357ZM338.317 461.253C337.612 461.253 337.012 461.465 336.518 461.888C336.036 462.299 335.742 462.852 335.636 463.546H340.98C340.886 462.864 340.598 462.311 340.116 461.888C339.634 461.465 339.034 461.253 338.317 461.253ZM344.139 472.435C344.856 471.165 345.385 469.854 345.726 468.502C346.067 467.15 346.237 465.709 346.237 464.181C346.237 462.652 346.067 461.212 345.726 459.86C345.385 458.507 344.856 457.196 344.139 455.927H346.237C346.931 456.973 347.46 458.208 347.825 459.63C348.201 461.041 348.389 462.558 348.389 464.181C348.389 465.803 348.201 467.32 347.825 468.731C347.46 470.13 346.931 471.365 346.237 472.435H344.139Z" fill="#F9F9F9"/>
<defs>
<filter id="filter0_i" x="31.7212" y="375.337" width="197.224" height="68.7374" filterUnits="userSpaceOnUse" color-interpolation-filters="sRGB">
<feFlood flood-opacity="0" result="BackgroundImageFix"/>
<feBlend mode="normal" in="SourceGraphic" in2="BackgroundImageFix" result="shape"/>
<feColorMatrix in="SourceAlpha" type="matrix" values="0 0 0 0 0 0 0 0 0 0 0 0 0 0 0 0 0 0 127 0" result="hardAlpha"/>
<feOffset dy="10"/>
<feGaussianBlur stdDeviation="6"/>
<feComposite in2="hardAlpha" operator="arithmetic" k2="-1" k3="1"/>
<feColorMatrix type="matrix" values="0 0 0 0 0 0 0 0 0 0 0 0 0 0 0 0 0 0 0.2 0"/>
<feBlend mode="normal" in2="shape" result="effect1_innerShadow"/>
</filter>
<filter id="filter1_i" x="11.6646" y="430.254" width="217.281" height="68.2599" filterUnits="userSpaceOnUse" color-interpolation-filters="sRGB">
<feFlood flood-opacity="0" result="BackgroundImageFix"/>
<feBlend mode="normal" in="SourceGraphic" in2="BackgroundImageFix" result="shape"/>
<feColorMatrix in="SourceAlpha" type="matrix" values="0 0 0 0 0 0 0 0 0 0 0 0 0 0 0 0 0 0 127 0" result="hardAlpha"/>
<feOffset dy="10"/>
<feGaussianBlur stdDeviation="6"/>
<feComposite in2="hardAlpha" operator="arithmetic" k2="-1" k3="1"/>
<feColorMatrix type="matrix" values="0 0 0 0 0 0 0 0 0 0 0 0 0 0 0 0 0 0 0.2 0"/>
<feBlend mode="normal" in2="shape" result="effect1_innerShadow"/>
</filter>
</defs>
</svg>
