<svg width="392" height="606" viewBox="0 0 392 606" fill="none" xmlns="http://www.w3.org/2000/svg">
<rect y="89.9672" width="392" height="515.705" rx="12.8525" fill="#2E2E2E"/>
<rect x="19.2786" y="109.246" width="358.262" height="480.361" rx="12.8525" fill="#F9F9F9"/>
<path d="M234.557 35.7013C234.557 43.7389 231.868 51.1562 227.33 57.1232C220.735 65.794 210.235 71.4026 198.41 71.4026C186.629 71.4026 176.164 65.8364 169.565 57.2215C164.981 51.2377 162.262 43.7831 162.262 35.7013C162.262 15.984 178.446 0 198.41 0C218.373 0 234.557 15.984 234.557 35.7013Z" fill="#1A1A1A"/>
<path d="M227.33 57.1232C220.735 65.794 210.235 71.4026 198.41 71.4026C186.629 71.4026 176.164 65.8364 169.565 57.2215L198.41 96.3934L227.33 57.1232Z" fill="#1A1A1A"/>
<circle cx="199.213" cy="35.3443" r="12.8525" fill="#F2FFF4"/>
<rect x="107.639" y="70.6885" width="179.934" height="59.4426" rx="12.8525" fill="#1A1A1A"/>
<rect x="260.262" y="221.705" width="77.1148" height="77.1148" rx="12.8525" fill="#E6F2E8"/>
<path d="M281.147 254.639L299.623 273.115L346.213 226.525" stroke="#86AB8A" stroke-width="4.81967" stroke-linecap="round" stroke-linejoin="round"/>
<rect x="56.2297" y="223.311" width="162.262" height="12.8525" rx="6.42623" fill="#646975"/>
<rect x="56.2295" y="242.59" width="122.098" height="12.8525" rx="6.42623" fill="#646975"/>
<rect x="56.2295" y="261.869" width="162.262" height="12.8525" rx="6.42623" fill="#646975"/>
<rect x="56.2295" y="281.148" width="144.59" height="12.8525" rx="6.42623" fill="#646975"/>
<rect x="260.262" y="324.525" width="77.1148" height="77.1148" rx="12.8525" fill="#E6F2E8"/>
<path d="M281.147 357.459L299.623 375.934L346.213 329.344" stroke="#86AB8A" stroke-width="4.81967" stroke-linecap="round" stroke-linejoin="round"/>
<rect x="56.2297" y="326.131" width="162.262" height="12.8525" rx="6.42623" fill="#646975"/>
<rect x="56.2295" y="345.41" width="122.098" height="12.8525" rx="6.42623" fill="#646975"/>
<rect x="56.2295" y="364.689" width="162.262" height="12.8525" rx="6.42623" fill="#646975"/>
<rect x="56.2295" y="383.967" width="144.59" height="12.8525" rx="6.42623" fill="#646975"/>
<rect x="260.262" y="427.344" width="77.1148" height="77.1148" rx="12.8525" fill="#E6F2E8"/>
<path d="M281.147 460.279L299.623 478.754L346.213 432.164" stroke="#86AB8A" stroke-width="4.81967" stroke-linecap="round" stroke-linejoin="round"/>
<rect x="56.2297" y="428.951" width="162.262" height="12.8525" rx="6.42623" fill="#646975"/>
<rect x="56.2295" y="448.229" width="122.098" height="12.8525" rx="6.42623" fill="#646975"/>
<rect x="56.2295" y="467.508" width="162.262" height="12.8525" rx="6.42623" fill="#646975"/>
<rect x="56.2295" y="486.787" width="144.59" height="12.8525" rx="6.42623" fill="#646975"/>
<path d="M145.336 186.443L141.866 181.43H141.66H138.035V186.443H133.871V168.449H141.66C143.254 168.449 144.633 168.715 145.798 169.246C146.981 169.777 147.889 170.531 148.523 171.508C149.157 172.485 149.474 173.642 149.474 174.978C149.474 176.315 149.149 177.472 148.497 178.448C147.863 179.408 146.955 180.145 145.773 180.659L149.808 186.443H145.336ZM145.259 174.978C145.259 173.967 144.933 173.196 144.282 172.665C143.631 172.116 142.68 171.842 141.429 171.842H138.035V178.114H141.429C142.68 178.114 143.631 177.84 144.282 177.292C144.933 176.743 145.259 175.972 145.259 174.978ZM166.706 183.101V186.443H152.773V168.449H166.371V171.791H156.912V175.698H165.266V178.937H156.912V183.101H166.706ZM182.127 177.163H185.931V184.463C184.955 185.2 183.824 185.766 182.538 186.16C181.253 186.554 179.959 186.751 178.657 186.751C176.789 186.751 175.11 186.357 173.619 185.569C172.128 184.763 170.954 183.658 170.097 182.253C169.257 180.83 168.838 179.228 168.838 177.446C168.838 175.664 169.257 174.07 170.097 172.665C170.954 171.242 172.136 170.137 173.644 169.349C175.152 168.543 176.849 168.141 178.734 168.141C180.311 168.141 181.741 168.406 183.027 168.938C184.312 169.469 185.392 170.24 186.266 171.251L183.592 173.719C182.307 172.365 180.756 171.688 178.94 171.688C177.791 171.688 176.772 171.928 175.881 172.408C174.99 172.888 174.296 173.564 173.799 174.438C173.302 175.312 173.053 176.315 173.053 177.446C173.053 178.56 173.302 179.554 173.799 180.428C174.296 181.302 174.981 181.987 175.855 182.484C176.746 182.964 177.757 183.204 178.888 183.204C180.088 183.204 181.167 182.947 182.127 182.433V177.163ZM189.8 168.449H193.964V186.443H189.8V168.449ZM204.146 186.751C202.724 186.751 201.344 186.563 200.008 186.186C198.688 185.791 197.626 185.286 196.82 184.669L198.234 181.533C199.005 182.098 199.922 182.553 200.984 182.895C202.047 183.238 203.109 183.409 204.172 183.409C205.354 183.409 206.228 183.238 206.794 182.895C207.359 182.535 207.642 182.064 207.642 181.482C207.642 181.053 207.471 180.702 207.128 180.428C206.802 180.136 206.374 179.905 205.843 179.734C205.329 179.562 204.626 179.374 203.735 179.168C202.364 178.843 201.241 178.517 200.368 178.191C199.494 177.866 198.74 177.343 198.105 176.623C197.489 175.904 197.18 174.944 197.18 173.744C197.18 172.699 197.463 171.757 198.028 170.917C198.594 170.06 199.442 169.383 200.573 168.886C201.721 168.389 203.118 168.141 204.763 168.141C205.911 168.141 207.034 168.278 208.13 168.552C209.227 168.826 210.187 169.22 211.009 169.734L209.724 172.896C208.062 171.954 206.4 171.482 204.737 171.482C203.572 171.482 202.707 171.671 202.141 172.048C201.593 172.425 201.319 172.922 201.319 173.539C201.319 174.156 201.636 174.618 202.27 174.927C202.921 175.218 203.906 175.509 205.226 175.801C206.597 176.126 207.719 176.452 208.593 176.778C209.467 177.103 210.212 177.617 210.829 178.32C211.463 179.022 211.78 179.974 211.78 181.173C211.78 182.201 211.489 183.144 210.907 184.001C210.341 184.84 209.484 185.509 208.336 186.006C207.188 186.503 205.791 186.751 204.146 186.751ZM218.102 171.842H212.344V168.449H228.024V171.842H222.266V186.443H218.102V171.842ZM241.729 186.443L238.259 181.43H238.053H234.429V186.443H230.265V168.449H238.053C239.647 168.449 241.027 168.715 242.192 169.246C243.374 169.777 244.282 170.531 244.917 171.508C245.551 172.485 245.868 173.642 245.868 174.978C245.868 176.315 245.542 177.472 244.891 178.448C244.257 179.408 243.349 180.145 242.166 180.659L246.202 186.443H241.729ZM241.652 174.978C241.652 173.967 241.326 173.196 240.675 172.665C240.024 172.116 239.073 171.842 237.822 171.842H234.429V178.114H237.822C239.073 178.114 240.024 177.84 240.675 177.292C241.326 176.743 241.652 175.972 241.652 174.978ZM257.881 186.751C256.013 186.751 254.325 186.348 252.817 185.543C251.326 184.738 250.152 183.632 249.295 182.227C248.456 180.805 248.036 179.211 248.036 177.446C248.036 175.681 248.456 174.096 249.295 172.69C250.152 171.268 251.326 170.154 252.817 169.349C254.325 168.543 256.013 168.141 257.881 168.141C259.749 168.141 261.428 168.543 262.919 169.349C264.41 170.154 265.584 171.268 266.441 172.69C267.297 174.096 267.726 175.681 267.726 177.446C267.726 179.211 267.297 180.805 266.441 182.227C265.584 183.632 264.41 184.738 262.919 185.543C261.428 186.348 259.749 186.751 257.881 186.751ZM257.881 183.204C258.943 183.204 259.903 182.964 260.76 182.484C261.617 181.987 262.285 181.302 262.765 180.428C263.262 179.554 263.51 178.56 263.51 177.446C263.51 176.332 263.262 175.338 262.765 174.464C262.285 173.59 261.617 172.913 260.76 172.433C259.903 171.936 258.943 171.688 257.881 171.688C256.818 171.688 255.859 171.936 255.002 172.433C254.145 172.913 253.468 173.59 252.971 174.464C252.491 175.338 252.251 176.332 252.251 177.446C252.251 178.56 252.491 179.554 252.971 180.428C253.468 181.302 254.145 181.987 255.002 182.484C255.859 182.964 256.818 183.204 257.881 183.204Z" fill="#646975"/>
<rect x="56.2295" y="567.115" width="281.148" height="3.21311" rx="1.60656" fill="#646975"/>
<path d="M127.478 547.795C122.748 556.665 122.156 560.508 127.478 560.508C132.8 560.508 152.607 540.404 143.442 522.074C138.564 512.318 125.408 565.534 141.964 564.056C147.91 563.525 141.964 547.795 159.407 561.099C163.283 564.056 164.433 557.552 178.328 558.439C198.41 559.72 244.197 564.056 285.164 560.508" stroke="#646975" stroke-width="2.95643" stroke-linecap="round" stroke-linejoin="round"/>
</svg>
